<svg xmlns="http://www.w3.org/2000/svg" id="vector" viewBox="0 0 500 500" height="500" width="500" shape-rendering="crispEdges"><defs><mask xmlns="http://www.w3.org/2000/svg" id="mask1"><path d="M 215 229 q -47 87 -15 161 M 0 0 M 500 500" stroke-dasharray="" stroke-width="20" fill="none" stroke="#ffffff" mask=""></path><path d="M 200 200 q -149 23 -27 89 M 0 0 M 500 500" stroke-dasharray="" stroke-width="20" fill="none" stroke="#ffffff" mask=""></path><path d="M 214 101 q -111 45 -38 76 M 0 0 M 500 500" stroke-dasharray="1,1" stroke-width="15" fill="none" stroke="#ffffff" mask=""></path><path d="M 290 143 q 11 69 -90 107 M 0 0 M 500 500" stroke-dasharray="1,1" stroke-width="15" fill="none" stroke="#ffffff" mask=""></path><path d="M 247 109 q -11 37 -61 88 M 0 0 M 500 500" stroke-dasharray="1,1" stroke-width="100" fill="none" stroke="#ffffff" mask=""></path></mask><mask id="mask1"></mask></defs><line x1="434" y1="438" x2="118" y2="82" stroke-dasharray=".3,1.1" stroke-width="400" stroke="#6d4f3d" mask="url(#mask1)" fill="#6d4f3d"></line><line x1="165" y1="107" x2="452" y2="444" stroke-dasharray=".3,1.0" stroke-width="300" stroke="#6d643d" mask="url(#mask1)" fill="#6d643d"></line><path d="M 172 292 q -32 11 -31 24 M 0 0 M 500 500" stroke-dasharray="" stroke-width="15" fill="none" stroke="#444466" mask=""></path><path d="M 173 404 q 27 6 46 -15 M 0 0 M 500 500" stroke-dasharray="" stroke-width="15" fill="none" stroke="#444466" mask=""></path><circle cx="205" cy="195" r="12" stroke-width="1" fill="none" stroke="#444466" mask=""></circle><line x1="200" y1="195" x2="231" y2="204" stroke-dasharray="1,1" stroke-width="20" stroke="#444466" mask=""></line><line x1="251" y1="51" x2="243" y2="94" stroke-dasharray="1,1" stroke-width="35" stroke="#444466" mask=""></line><path d="M 217 243 q 7 -5 -17 7 M 0 0 M 500 500" stroke-dasharray="1,1" stroke-width="20" fill="none" stroke="#444466" mask=""></path><line x1="256" y1="46" x2="254" y2="52" stroke-dasharray="1,1" stroke-width="100" stroke="#444466" mask=""></line><line x1="259" y1="27" x2="255" y2="51" stroke-dasharray="" stroke-width="33" stroke="#444466" mask=""></line></svg>