<svg xmlns="http://www.w3.org/2000/svg" id="vector" viewBox="0 0 500 500" height="500" width="500" shape-rendering="crispEdges"><defs><mask xmlns="http://www.w3.org/2000/svg" id="mask1"><path d="M 174 208 q -103 -134 -59 13 M 0 0 M 500 500" stroke-dasharray="" stroke-width="300" fill="none" stroke="#000000" mask=""></path><rect x="248" y="115" width="229" height="290" stroke-width="1" fill="#ffffff" stroke="#ffffff" mask=""></rect><line x1="21" y1="417" x2="448" y2="281" stroke-dasharray="0" stroke-width="300" stroke="#ffffff" mask="" fill="#ffffff"></line><path d="M 389 102 q -68 132 -147 50 M 0 0 M 500 500" stroke-dasharray="1,1" stroke-width="100" fill="none" stroke="#000000" mask=""></path><path d="M 486 126 q -90 -34 -142 -34 M 0 0 M 500 500" stroke-dasharray="" stroke-width="100" fill="none" stroke="#000000" mask=""></path></mask><mask id="mask1"></mask></defs><line x1="12" y1="33" x2="473" y2="66" stroke-dasharray="1,1" stroke-width="100" stroke="#86a4c1" mask="" fill="#86a4c1"></line><line x1="5" y1="68" x2="474" y2="144" stroke-dasharray="1,1" stroke-width="100" stroke="#ffffff" mask="" fill="#ffffff"></line><line x1="224" y1="322" x2="221" y2="322" stroke-dasharray="" stroke-width="50" stroke="#444466" mask=""></line><path d="M 203 194 q -53 6 146 234 M 0 0 M 500 500" stroke-dasharray="1,1" stroke-width="500" fill="none" stroke="#948030" mask="url(#mask1)"></path><circle cx="121" cy="119" r="20" stroke-width="1" fill="#9d8b0d" stroke="#9d8b0d" mask=""></circle><path d="M 196 342 q 69 125 8 4 M 0 0 M 500 500" stroke-dasharray=".1,.2" stroke-width="17" fill="none" stroke="#444466" mask=""></path><path d="M 203 347 q 2 -56 -4 3 M 0 0 M 500 500" stroke-dasharray="" stroke-width="20" fill="none" stroke="#5e2449" mask=""></path><circle cx="206" cy="302" r="4" stroke-width="1" fill="#6d275a" stroke="#6d275a" mask=""></circle><path d="M 192 358 q -28 59 -134 137 M 0 0 M 500 500" stroke-dasharray="5,7" stroke-width="2" fill="none" stroke="#444466" mask=""></path><line x1="214" y1="313" x2="217" y2="316" stroke-dasharray="1,1" stroke-width="20" stroke="#444466" mask=""></line><path d="M 197 361 q -62 92 -123 131 M 0 0 M 500 500" stroke-dasharray="0,7,5,0" stroke-width="2" fill="none" stroke="#444466" mask=""></path><path d="M 210 310 q -9 23 -5 43 M 0 0 M 500 500" stroke-dasharray="2,.1" stroke-width="14" fill="none" stroke="#381b30" mask=""></path></svg>