<svg xmlns="http://www.w3.org/2000/svg" id="vector" viewBox="0 0 500 500" height="500" width="500" shape-rendering="crispEdges"><defs><mask xmlns="http://www.w3.org/2000/svg" id="mask1"><path d="M 414 182 q -159 -178 -281 73 M 0 0 M 500 500" stroke-dasharray="" stroke-width="200" fill="none" stroke="#ffffff" mask=""></path><path d="M 438 236 q -63 -142 -238 14 M 0 0 M 500 500" stroke-dasharray="1,1" stroke-width="100" fill="none" stroke="#ffffff" mask=""></path><line x1="71" y1="195" x2="448" y2="200" stroke-dasharray="" stroke-width="100" stroke="#ffffff" mask="" fill="#ffffff"></line></mask><mask xmlns="http://www.w3.org/2000/svg" id="mask1"></mask><mask id="mask1"></mask></defs><line x1="12" y1="28" x2="466" y2="255" stroke-dasharray="1,1" stroke-width="400" stroke="#bbe9f2" mask="url(#mask1)" fill="#bbe9f2"></line><circle cx="280" cy="75" r="50" stroke-width="1" fill="#f9fc72" stroke="#f9fc72" mask=""></circle><path d="M 460 257 q -310 -57 -362 58 M 0 0 M 500 500" stroke-dasharray="1,1" stroke-width="230" fill="none" stroke="#13973a" mask="url(#mask1)"></path><path d="M 453 270 q -356 -86 -200 38 M 0 0 M 500 500" stroke-dasharray=".1,.1" stroke-width="230" fill="none" stroke="#7ad886" mask="url(#mask1)"></path><circle cx="280" cy="76" r="30" stroke-width="30" fill="#fffb46" stroke="#fffb46" mask="" stroke-dasharray="1,2,1,2,1,1,1,2"></circle><path d="M 465 218 q -229 188 -433 63 M 0 0 M 500 500" stroke-dasharray="1,3" stroke-width="150" fill="none" stroke="#238c1e" mask="url(#mask1)"></path><path d="M 47 195 q 124 -1 373 36 M 0 0 M 500 500" stroke-dasharray=".1,1" stroke-width="100" fill="none" stroke="#238728" mask="url(#mask1)"></path></svg>