<svg xmlns="http://www.w3.org/2000/svg" id="vector" viewBox="0 0 500 500" height="500" width="500" shape-rendering="crispEdges"><defs><mask xmlns="http://www.w3.org/2000/svg" id="mask1"><rect x="2" y="8" width="484" height="210" stroke-width="1" fill="#ffffff" stroke="#ffffff" mask=""></rect></mask></defs><rect x="7" y="7" width="491" height="484" stroke-width="1" fill="#000000" stroke="#000000" mask=""></rect><path d="M 237 432 q 5 -314 -1 -58 M 0 0 M 500 500" stroke-dasharray="1,1" stroke-width="700" fill="none" stroke="#27273d" mask=""></path><path d="M 283 215 q -7 -87 -32 40 M 0 0 M 500 500" stroke-dasharray=".01,.01" stroke-width="500" fill="none" stroke="#a569a4" mask="url(#mask1)"></path><path d="M 317 224 q -51 -170 -117 26 M 0 0 M 500 500" stroke-dasharray=".1,1" stroke-width="400" fill="none" stroke="#646497" mask="url(#mask1)"></path><rect x="95" y="161" width="13" height="34" stroke-width="1" fill="#444466" stroke="#444466" mask=""></rect><line x1="246" y1="150" x2="248" y2="230" stroke-dasharray="" stroke-width="200" stroke="#151520" mask="" fill="#151520"></line><rect x="112" y="161" width="13" height="33" stroke-width="1" fill="#444466" stroke="#444466" mask=""></rect><rect x="133" y="164" width="12" height="29" stroke-width="1" fill="#444466" stroke="#444466" mask=""></rect><line x1="101" y1="163" x2="101" y2="194" stroke-dasharray="1,1" stroke-width="3" stroke="#666699" mask="" fill="#666699"></line><line x1="119" y1="165" x2="119" y2="194" stroke-dasharray="1,1" stroke-width="3" stroke="#666699" mask="" fill="#666699"></line><line x1="138" y1="164" x2="138" y2="194" stroke-dasharray="1,1" stroke-width="3" stroke="#666699" mask="" fill="#666699"></line><rect x="367" y="35" width="38" height="56" stroke-width="1" fill="#444466" stroke="#444466" mask=""></rect><rect x="374" y="84" width="28" height="28" stroke-width="1" fill="#151520" stroke="#151520" mask=""></rect><rect x="304" y="134" width="20" height="19" stroke-width="1" fill="#151520" stroke="#151520" mask=""></rect><line x1="380" y1="32" x2="381" y2="91" stroke-dasharray="1,2" stroke-width="20" stroke="#9393b7" mask="" fill="#9393b7"></line><line x1="380" y1="430" x2="382" y2="262" stroke-dasharray=".3,4" stroke-width="20" stroke="#9393b7" mask="" fill="#9393b7"></line><line x1="248" y1="382" x2="255" y2="268" stroke-dasharray=".3,4" stroke-width="180" stroke="#444466" mask=""></line><line x1="442" y1="395" x2="444" y2="258" stroke-dasharray=".3,4" stroke-width="5" stroke="#9393b7" mask="" fill="#9393b7"></line><line x1="137" y1="259" x2="117" y2="417" stroke-dasharray=".1,4" stroke-width="30" stroke="#9393b7" mask="" fill="#9393b7"></line><line x1="402" y1="42" x2="402" y2="90" stroke-dasharray="1,1" stroke-width="10" stroke="#28283c" mask="" fill="#28283c"></line><path d="M 407 92 q -18 -14 -40 -1 M 0 0 M 500 500" stroke-dasharray="" stroke-width="5" fill="none" stroke="#28283c" mask=""></path><path d="M 406 66 q -24 -13 -37 2 M 0 0 M 500 500" stroke-dasharray="" stroke-width="5" fill="none" stroke="#28283c" mask=""></path><path d="M 406 39 q -19 -12 -39 2 M 0 0 M 500 500" stroke-dasharray="" stroke-width="5" fill="none" stroke="#28283c" mask=""></path><line x1="221" y1="233" x2="221" y2="258" stroke-dasharray="1,1" stroke-width="600" stroke="#8b4493" mask="" fill="#8b4493"></line><line x1="232" y1="260" x2="231" y2="238" stroke-dasharray=".11,1" stroke-width="600" stroke="#503153" mask="" fill="#503153"></line><line x1="209" y1="249" x2="209" y2="267" stroke-dasharray=".21,1" stroke-width="600" stroke="#402541" mask="" fill="#402541"></line><path d="M 176 133 q 0 -77 -17 -35 M 0 0 M 500 500" stroke-dasharray="" stroke-width="10" fill="none" stroke="#8282ac" mask=""></path><rect x="148" y="94" width="20" height="59" stroke-width="1" fill="#444466" stroke="#444466" mask=""></rect><line x1="155" y1="93" x2="156" y2="154" stroke-dasharray="1,1" stroke-width="30" stroke="#151520" mask="" fill="#151520"></line><line x1="155" y1="99" x2="155" y2="152" stroke-dasharray="1,2" stroke-width="10" stroke="#9797b9" mask="" fill="#9797b9"></line><path d="M 142 154 q 16 -11 33 -2 M 0 0 M 500 500" stroke-dasharray="" stroke-width="5" fill="none" stroke="#151520" mask=""></path><rect x="365" y="113" width="40" height="119" stroke-width="1" fill="#444466" stroke="#444466" mask="url(#mask1)"></rect><line x1="232" y1="111" x2="215" y2="111" stroke-dasharray="3,3" stroke-width="100" stroke="#151520" mask="" fill="#151520"></line><line x1="223" y1="64" x2="222" y2="152" stroke-dasharray="3,3" stroke-width="25" stroke="#27273d" mask="" fill="#27273d"></line><line x1="81" y1="194" x2="82" y2="70" stroke-dasharray="3,3" stroke-width="20" stroke="#151520" mask="" fill="#151520"></line><line x1="88" y1="127" x2="71" y2="127" stroke-dasharray="3,3" stroke-width="200" stroke="#28283c" mask="" fill="#28283c"></line><rect x="294" y="44" width="36" height="93" stroke-width="1" fill="#444466" stroke="#444466" mask=""></rect><line x1="314" y1="51" x2="315" y2="138" stroke-dasharray="1,1" stroke-width="45" stroke="#32324b" mask="" fill="#32324b"></line><line x1="311" y1="41" x2="312" y2="133" stroke-dasharray="1,2" stroke-width="17" stroke="#8282aa" mask="" fill="#8282aa"></line><path d="M 338 81 q -21 -16 -50 -2 M 0 0 M 500 500" stroke-dasharray="" stroke-width="5" fill="none" stroke="#28283c" mask=""></path><path d="M 337 109 q -23 -16 -45 -1 M 0 0 M 500 500" stroke-dasharray="" stroke-width="5" fill="none" stroke="#28283c" mask=""></path><line x1="387" y1="115" x2="388" y2="236" stroke-dasharray="1,1" stroke-width="60" stroke="#383854" mask="" fill="#383854"></line><line x1="380" y1="110" x2="382" y2="232" stroke-dasharray="1,2" stroke-width="20" stroke="#8a8ab0" mask="" fill="#8a8ab0"></line><path d="M 423 174 q -30 -11 -70 -1 M 0 0 M 500 500" stroke-dasharray="" stroke-width="5" fill="none" stroke="#20202f" mask=""></path><path d="M 420 143 q -26 -16 -64 0 M 0 0 M 500 500" stroke-dasharray="" stroke-width="5" fill="none" stroke="#28283c" mask=""></path><line x1="239" y1="155" x2="239" y2="164" stroke-dasharray="1,.1" stroke-width="200" stroke="#444466" mask=""></line><rect x="156" y="167" width="10" height="62" stroke-width="1" fill="#444466" stroke="#444466" mask=""></rect><rect x="185" y="169" width="11" height="58" stroke-width="1" fill="#444466" stroke="#444466" mask=""></rect><rect x="218" y="170" width="11" height="60" stroke-width="1" fill="#444466" stroke="#444466" mask=""></rect><rect x="253" y="168" width="12" height="59" stroke-width="1" fill="#444466" stroke="#444466" mask=""></rect><rect x="286" y="168" width="13" height="58" stroke-width="1" fill="#444466" stroke="#444466" mask=""></rect><rect x="317" y="170" width="11" height="57" stroke-width="1" fill="#444466" stroke="#444466" mask=""></rect><line x1="51" y1="220" x2="152" y2="220" stroke-dasharray="" stroke-width="28" stroke="#444466" mask=""></line><line x1="457" y1="157" x2="457" y2="232" stroke-dasharray="3,3" stroke-width="40" stroke="#151520" mask="" fill="#151520"></line><line x1="477" y1="188" x2="444" y2="189" stroke-dasharray="3,3" stroke-width="80" stroke="#151520" mask="" fill="#151520"></line><line x1="438" y1="152" x2="440" y2="228" stroke-dasharray="1,1" stroke-width="5" stroke="#444466" mask=""></line><rect x="439" y="118" width="10" height="114" stroke-width="1" fill="#444466" stroke="#444466" mask=""></rect><line x1="445" y1="122" x2="446" y2="232" stroke-dasharray="1,1" stroke-width="5" stroke="#8282ac" mask="" fill="#8282ac"></line><circle cx="216" cy="54" r="6" stroke-width="1" fill="#007b95" stroke="#007b95" mask=""></circle><circle cx="217" cy="54" r="3" stroke-width="1" fill="#75ebff" stroke="#75ebff" mask=""></circle><line x1="98" y1="193" x2="99" y2="206" stroke-dasharray="" stroke-width="100" stroke="#28283c" mask="" fill="#28283c"></line><rect x="169" y="133" width="14" height="21" stroke-width="1" fill="#151520" stroke="#151520" mask=""></rect><line x1="141" y1="206" x2="142" y2="233" stroke-dasharray="" stroke-width="30" stroke="#7373a4" mask="" fill="#7373a4"></line><path d="M 169 106 q -13 -9 -27 1 M 0 0 M 500 500" stroke-dasharray="" stroke-width="5" fill="none" stroke="#151520" mask=""></path><path d="M 418 205 q -26 -12 -58 0 M 0 0 M 500 500" stroke-dasharray="" stroke-width="5" fill="none" stroke="#151520" mask=""></path></svg>